<mxfile host="Electron" modified="2025-03-09T16:21:41.764Z" agent="Mozilla/5.0 (Windows NT 10.0; Win64; x64) AppleWebKit/537.36 (KHTML, like Gecko) draw.io/24.6.1 Chrome/124.0.6367.207 Electron/30.0.6 Safari/537.36" etag="plZjJP6Xh5ESgUafxE3U" version="24.6.1" type="device">
  <diagram id="C5RBs43oDa-KdzZeNtuy" name="Page-1">
    <mxGraphModel dx="973" dy="576" grid="1" gridSize="10" guides="1" tooltips="1" connect="1" arrows="1" fold="1" page="1" pageScale="1" pageWidth="827" pageHeight="1169" math="0" shadow="0">
      <root>
        <mxCell id="WIyWlLk6GJQsqaUBKTNV-0" />
        <mxCell id="WIyWlLk6GJQsqaUBKTNV-1" parent="WIyWlLk6GJQsqaUBKTNV-0" />
        <mxCell id="uPbncefPZ72xGCLVGSJN-0" value="&lt;font style=&quot;font-size: 30px;&quot;&gt;IIC、UART、GPIO、ADC、TIM初始化&lt;/font&gt;" style="rounded=1;whiteSpace=wrap;html=1;" vertex="1" parent="WIyWlLk6GJQsqaUBKTNV-1">
          <mxGeometry x="230" y="30" width="330" height="70" as="geometry" />
        </mxCell>
        <mxCell id="uPbncefPZ72xGCLVGSJN-4" value="&lt;span style=&quot;font-size: 30px;&quot;&gt;数据采集任务&lt;/span&gt;" style="rounded=1;whiteSpace=wrap;html=1;" vertex="1" parent="WIyWlLk6GJQsqaUBKTNV-1">
          <mxGeometry x="230" y="170" width="330" height="70" as="geometry" />
        </mxCell>
        <mxCell id="uPbncefPZ72xGCLVGSJN-7" value="" style="endArrow=classic;html=1;rounded=0;strokeWidth=3;" edge="1" parent="WIyWlLk6GJQsqaUBKTNV-1">
          <mxGeometry width="50" height="50" relative="1" as="geometry">
            <mxPoint x="394.65999999999997" y="100" as="sourcePoint" />
            <mxPoint x="394.65999999999997" y="170" as="targetPoint" />
          </mxGeometry>
        </mxCell>
        <mxCell id="uPbncefPZ72xGCLVGSJN-8" value="&lt;span style=&quot;font-size: 30px;&quot;&gt;开始采集数据&lt;/span&gt;" style="rounded=1;whiteSpace=wrap;html=1;" vertex="1" parent="WIyWlLk6GJQsqaUBKTNV-1">
          <mxGeometry x="230" y="310" width="330" height="70" as="geometry" />
        </mxCell>
        <mxCell id="uPbncefPZ72xGCLVGSJN-9" value="" style="endArrow=classic;html=1;rounded=0;strokeWidth=3;" edge="1" parent="WIyWlLk6GJQsqaUBKTNV-1">
          <mxGeometry width="50" height="50" relative="1" as="geometry">
            <mxPoint x="394.65999999999997" y="240" as="sourcePoint" />
            <mxPoint x="394.65999999999997" y="310" as="targetPoint" />
          </mxGeometry>
        </mxCell>
        <mxCell id="uPbncefPZ72xGCLVGSJN-10" value="&lt;font style=&quot;font-size: 30px;&quot;&gt;是否采集成功&lt;/font&gt;" style="rhombus;whiteSpace=wrap;html=1;" vertex="1" parent="WIyWlLk6GJQsqaUBKTNV-1">
          <mxGeometry x="290" y="440" width="210" height="180" as="geometry" />
        </mxCell>
        <mxCell id="uPbncefPZ72xGCLVGSJN-11" value="" style="endArrow=classic;html=1;rounded=0;strokeWidth=3;" edge="1" parent="WIyWlLk6GJQsqaUBKTNV-1">
          <mxGeometry width="50" height="50" relative="1" as="geometry">
            <mxPoint x="394.65999999999997" y="380" as="sourcePoint" />
            <mxPoint x="395" y="440" as="targetPoint" />
          </mxGeometry>
        </mxCell>
        <mxCell id="uPbncefPZ72xGCLVGSJN-12" value="" style="endArrow=classic;html=1;rounded=0;strokeWidth=3;" edge="1" parent="WIyWlLk6GJQsqaUBKTNV-1">
          <mxGeometry width="50" height="50" relative="1" as="geometry">
            <mxPoint x="394.78999999999996" y="620" as="sourcePoint" />
            <mxPoint x="395.13" y="680" as="targetPoint" />
          </mxGeometry>
        </mxCell>
        <mxCell id="uPbncefPZ72xGCLVGSJN-13" value="&lt;span style=&quot;font-size: 30px;&quot;&gt;将数据发送到数据上传任务&lt;/span&gt;" style="rounded=1;whiteSpace=wrap;html=1;" vertex="1" parent="WIyWlLk6GJQsqaUBKTNV-1">
          <mxGeometry x="230" y="680" width="330" height="70" as="geometry" />
        </mxCell>
        <mxCell id="uPbncefPZ72xGCLVGSJN-14" value="" style="endArrow=classic;html=1;rounded=0;strokeWidth=3;" edge="1" parent="WIyWlLk6GJQsqaUBKTNV-1">
          <mxGeometry width="50" height="50" relative="1" as="geometry">
            <mxPoint x="394.78999999999996" y="750" as="sourcePoint" />
            <mxPoint x="395.13" y="810" as="targetPoint" />
          </mxGeometry>
        </mxCell>
        <mxCell id="uPbncefPZ72xGCLVGSJN-15" value="&lt;span style=&quot;font-size: 30px;&quot;&gt;判断数据的阈值并进行控制&lt;/span&gt;" style="rounded=1;whiteSpace=wrap;html=1;" vertex="1" parent="WIyWlLk6GJQsqaUBKTNV-1">
          <mxGeometry x="230" y="810" width="330" height="70" as="geometry" />
        </mxCell>
        <mxCell id="uPbncefPZ72xGCLVGSJN-16" value="" style="endArrow=classic;html=1;rounded=0;entryX=1.007;entryY=0.497;entryDx=0;entryDy=0;entryPerimeter=0;exitX=1;exitY=0.5;exitDx=0;exitDy=0;strokeWidth=3;" edge="1" parent="WIyWlLk6GJQsqaUBKTNV-1" source="uPbncefPZ72xGCLVGSJN-10" target="uPbncefPZ72xGCLVGSJN-8">
          <mxGeometry width="50" height="50" relative="1" as="geometry">
            <mxPoint x="500" y="525" as="sourcePoint" />
            <mxPoint x="560" y="340" as="targetPoint" />
            <Array as="points">
              <mxPoint x="510" y="530" />
              <mxPoint x="740" y="530" />
              <mxPoint x="740" y="345" />
            </Array>
          </mxGeometry>
        </mxCell>
        <mxCell id="uPbncefPZ72xGCLVGSJN-17" value="&lt;font style=&quot;font-size: 30px;&quot;&gt;NO&lt;/font&gt;" style="text;html=1;align=center;verticalAlign=middle;whiteSpace=wrap;rounded=0;" vertex="1" parent="WIyWlLk6GJQsqaUBKTNV-1">
          <mxGeometry x="500" y="500" width="60" height="30" as="geometry" />
        </mxCell>
        <mxCell id="uPbncefPZ72xGCLVGSJN-18" value="" style="endArrow=classic;html=1;rounded=0;strokeWidth=3;entryX=0;entryY=0.5;entryDx=0;entryDy=0;" edge="1" parent="WIyWlLk6GJQsqaUBKTNV-1" target="uPbncefPZ72xGCLVGSJN-10">
          <mxGeometry width="50" height="50" relative="1" as="geometry">
            <mxPoint x="394.37999999999994" y="880" as="sourcePoint" />
            <mxPoint x="110" y="520" as="targetPoint" />
            <Array as="points">
              <mxPoint x="394" y="950" />
              <mxPoint x="90" y="950" />
              <mxPoint x="90" y="530" />
            </Array>
          </mxGeometry>
        </mxCell>
      </root>
    </mxGraphModel>
  </diagram>
</mxfile>
